<!DOCTYPE svg PUBLIC "-//W3C//DTD SVG 1.1//EN" "http://www.w3.org/Graphics/SVG/1.1/DTD/svg11.dtd">
<!-- Uploaded to: SVG Repo, www.svgrepo.com, Transformed by: SVG Repo Mixer Tools -->
<svg height="800px" width="800px" version="1.1" id="Capa_1" xmlns="http://www.w3.org/2000/svg" xmlns:xlink="http://www.w3.org/1999/xlink" viewBox="0 0 26.664 26.664" xml:space="preserve" fill="#000000">
<g id="SVGRepo_bgCarrier" stroke-width="0"/>
<g id="SVGRepo_tracerCarrier" stroke-linecap="round" stroke-linejoin="round"/>
<g id="SVGRepo_iconCarrier"> <g> <g> <g> <g> <path style="fill:#ffffff;" d="M5.823,12.538v4.687H1.812v-4.687H5.823 M7.032,10.725H0.604C0.27,10.725,0,10.996,0,11.329 v13.993c0,0.333,0.27,0.604,0.604,0.604h6.429c0.334,0,0.603-0.271,0.603-0.604V11.329C7.635,10.996,7.366,10.725,7.032,10.725 L7.032,10.725z"/> </g> </g> <g> <g> <path style="fill:#ffffff;" d="M15.279,8.906v9.419h-4.011V8.906H15.279 M16.489,7.093h-6.43c-0.333,0-0.604,0.271-0.604,0.604 v17.625c0,0.333,0.271,0.604,0.604,0.604h6.43c0.332,0,0.603-0.271,0.603-0.604V7.697C17.092,7.363,16.821,7.093,16.489,7.093 L16.489,7.093z"/> </g> </g> <g> <g> <path style="fill:#ffffff;" d="M24.852,2.551v11.652H20.84V2.551H24.852 M26.059,0.738h-6.427c-0.334,0-0.604,0.271-0.604,0.604 v23.979c0,0.333,0.27,0.604,0.604,0.604h6.427c0.336,0,0.605-0.271,0.605-0.604V1.342C26.664,1.009,26.395,0.738,26.059,0.738 L26.059,0.738z"/> </g> </g> </g> </g> </g>
</svg>